<svg width="512" height="537" viewBox="0 0 512 537" fill="none" xmlns="http://www.w3.org/2000/svg">
<g clip-path="url(#clip0_115_6)">
<path d="M347.625 321.062C366.594 312.768 388.711 321.423 397.002 340.386L397.565 341.674C400.021 347.291 397.462 353.823 391.843 356.28L343.454 377.437C337.835 379.894 331.303 377.338 328.847 371.72L328.283 370.432C319.992 351.47 328.655 329.356 347.625 321.062ZM287.306 392.355C289.824 385.927 297.09 382.75 303.519 385.266L336.437 398.149C336.797 398.29 337.122 398.447 337.446 398.603C341.386 393.769 346.543 389.767 352.663 387.091L392.713 369.58C398.833 366.904 405.237 365.851 411.497 366.225C411.602 365.881 411.708 365.537 411.849 365.177L424.743 332.263C427.261 325.834 434.527 322.658 440.956 325.174C447.385 327.69 450.561 334.953 448.043 341.382L435.148 374.295C435.007 374.655 434.851 374.979 434.694 375.304C438.79 378.627 442.267 382.775 444.846 387.699L467.86 377.637C474.195 374.867 481.55 377.746 484.319 384.078C487.088 390.411 484.207 397.765 477.872 400.535L454.966 410.551C458.814 419.352 460.475 428.513 460.185 437.505C461.176 437.626 462.142 437.885 463.084 438.283L496.002 451.166C502.431 453.682 505.607 460.945 503.088 467.374C500.57 473.802 493.304 476.979 486.875 474.463L454.42 461.761C449.061 473.395 440.112 483.445 428.296 490.06L390.86 404.442C389.484 401.294 385.78 399.844 382.631 401.221C379.481 402.599 378.031 406.301 379.407 409.45L416.827 495.032C403.947 499.215 390.492 498.961 378.313 494.995L365.62 527.395C363.102 533.823 355.836 537 349.407 534.484C342.978 531.967 339.802 524.704 342.32 518.276L355.215 485.362C355.597 484.385 356.078 483.535 356.611 482.706C349.865 476.833 344.267 469.393 340.419 460.592L317.513 470.607C311.178 473.377 303.823 470.499 301.054 464.166C298.285 457.833 301.166 450.479 307.501 447.709L330.515 437.647C328.702 432.43 328.002 427.025 328.308 421.777C327.964 421.672 327.619 421.567 327.259 421.426L294.341 408.543C287.912 406.027 284.736 398.764 287.254 392.335L287.306 392.355Z" fill="#B6383E"/>
</g>
<g clip-path="url(#clip1_115_6)">
<path d="M194.136 46.8113L167.285 106.692L247.126 142.493L273.977 82.6129C278.927 71.5724 274.007 58.6531 262.967 53.7024L223.047 35.8016C212.006 30.8509 199.087 35.7709 194.136 46.8113ZM158.335 126.652C125.276 111.828 86.4272 126.622 71.6031 159.681L13.4256 289.422C6.01354 305.951 13.4107 325.375 29.9402 332.787L169.661 395.44C186.19 402.852 205.615 395.455 213.027 378.926L271.204 249.185C286.028 216.126 271.234 177.277 238.175 162.453L158.335 126.652ZM171.404 204.433C184.638 210.367 194.973 221.316 200.135 234.871C205.297 248.425 204.862 263.475 198.928 276.709C192.994 289.944 182.045 300.278 168.49 305.44C154.936 310.602 139.886 310.168 126.652 304.233C113.417 298.299 103.082 287.35 97.9207 273.796C92.7589 260.241 93.193 245.192 99.1274 231.957C105.062 218.723 116.011 208.388 129.565 203.226C143.12 198.064 158.169 198.498 171.404 204.433ZM369.302 137.345C369.694 136.472 369.517 135.194 368.937 134.484L353.817 118.414L354.418 96.3583C354.379 95.442 353.661 94.3707 352.787 93.9791C351.914 93.5876 350.637 93.7638 349.927 94.3445L333.857 109.464L311.801 108.864C310.885 108.902 309.813 109.62 309.422 110.494C309.03 111.367 309.206 112.645 309.787 113.355L324.907 129.424L324.306 151.48C324.345 152.397 325.063 153.468 325.936 153.859C326.81 154.251 328.087 154.075 328.797 153.494L344.867 138.375L366.923 138.975C367.839 138.936 368.91 138.218 369.302 137.345ZM404.147 187.282C404.185 188.198 404.903 189.269 405.777 189.661C406.65 190.053 407.928 189.876 408.638 189.296L424.707 174.176L446.763 174.777C447.68 174.738 448.751 174.02 449.142 173.146C449.534 172.273 449.358 170.996 448.777 170.286L433.658 154.216L434.258 132.16C434.219 131.244 433.501 130.172 432.628 129.781C431.755 129.389 430.477 129.565 429.767 130.146L413.697 145.266L391.641 144.665C390.725 144.704 389.654 145.422 389.262 146.295C388.871 147.169 389.047 148.446 389.628 149.156L404.747 165.226L404.147 187.282ZM380.556 251.921C380.517 251.004 379.799 249.933 378.926 249.541C378.052 249.15 376.775 249.326 376.065 249.907L359.995 265.026L337.939 264.426C337.023 264.464 335.951 265.183 335.56 266.056C335.168 266.929 335.344 268.207 335.925 268.917L351.045 284.986L350.444 307.043C350.483 307.959 351.201 309.03 352.074 309.422C352.948 309.813 354.225 309.637 354.935 309.056L371.005 293.937L393.061 294.537C393.977 294.499 395.049 293.78 395.44 292.907C395.832 292.034 395.655 290.756 395.075 290.046L379.955 273.977L380.556 251.921ZM382.371 215.126C382.763 214.253 382.586 212.975 382.006 212.265L366.886 196.196L367.487 174.139C367.448 173.223 366.73 172.152 365.857 171.76C364.983 171.369 363.706 171.545 362.996 172.126L346.926 187.245L324.87 186.645C323.954 186.683 322.882 187.402 322.491 188.275C322.099 189.148 322.275 190.426 322.856 191.136L337.976 207.205L337.375 229.261C337.414 230.178 338.132 231.249 339.005 231.641C339.879 232.032 341.156 231.856 341.866 231.275L357.936 216.156L379.992 216.756C380.908 216.718 381.98 215.999 382.371 215.126Z" fill="#F4DCCC"/>
</g>
<defs>
<clipPath id="clip0_115_6">
<rect width="256" height="256" fill="white" transform="translate(256 281)"/>
</clipPath>
<clipPath id="clip1_115_6">
<rect width="350" height="350" fill="white" transform="translate(143.206) rotate(24.1521)"/>
</clipPath>
</defs>
</svg>
