<svg width="48" height="49" viewBox="0 0 48 49" fill="none" xmlns="http://www.w3.org/2000/svg">
<path d="M33.375 49C31.5694 49 29.8889 48.5694 28.3333 47.7083C26.7778 46.8472 25.625 45.6111 24.875 44H20.0417V41.5H23.875C23.6806 40.7778 23.5833 40.0486 23.5833 39.3125V37.0833H20V34.5833H23.5833C23.5833 33.7778 23.5903 32.9792 23.6042 32.1875C23.6181 31.3958 23.7361 30.6111 23.9583 29.8333H20.0417V27.3333H25.0417C25.4306 26.5556 25.9444 25.875 26.5833 25.2917C27.2222 24.7083 27.9306 24.2222 28.7083 23.8333L25.5 20.6667L27.1667 19L31.0833 22.9167C31.8611 22.6389 32.6458 22.5 33.4375 22.5C34.2292 22.5 35.0139 22.6389 35.7917 22.9167L39.7083 19L41.375 20.6667L38.2083 23.8333C38.9861 24.2222 39.6736 24.7153 40.2708 25.3125C40.8681 25.9097 41.3889 26.5833 41.8333 27.3333H46.75V29.8333H42.7917C43.0417 30.6111 43.1597 31.3958 43.1458 32.1875C43.1319 32.9792 43.125 33.7778 43.125 34.5833H46.75V37.0833H43.125C43.125 37.8333 43.1319 38.5764 43.1458 39.3125C43.1597 40.0486 43.0694 40.7778 42.875 41.5H46.75V44H41.9167C41.1944 45.6389 40.0486 46.8819 38.4792 47.7292C36.9097 48.5764 35.2083 49 33.375 49ZM33.375 46.5C35.375 46.5 37.0833 45.7986 38.5 44.3958C39.9167 42.9931 40.625 41.2917 40.625 39.2917V32.3333C40.625 30.3333 39.9167 28.6319 38.5 27.2292C37.0833 25.8264 35.375 25.125 33.375 25.125C31.375 25.125 29.6667 25.8264 28.25 27.2292C26.8333 28.6319 26.125 30.3333 26.125 32.3333V39.2917C26.125 41.2917 26.8333 42.9931 28.25 44.3958C29.6667 45.7986 31.375 46.5 33.375 46.5ZM30.0417 40.6667H36.7083V38.1667H30.0417V40.6667ZM30.0417 33.4583H36.7083V30.9583H30.0417V33.4583Z" fill="#B6383E"/>
<g clip-path="url(#clip0_103_4)">
<path d="M16 36H12.95H0.1V33H12.95V20.5C12.95 18.7 12.3165 17.1667 11.0496 15.9C9.78263 14.6333 8.24943 14 6.45 14C4.75 14 3.35 14.5 2.25 15.5C1.15 16.5 0.433334 17.7 0.1 19.1H-3C-2.66667 17.1 -1.78333 15.3833 -0.35 13.95C1.08333 12.5167 2.85 11.5667 4.95 11.1V6H1.95V3H12.45C13.4266 3 14.3458 3.14167 15.2075 3.425C16.0692 3.70833 16.8833 4.1 17.65 4.6L15.45 6.8C14.9833 6.53333 14.5083 6.33333 14.025 6.2C13.5417 6.06667 13.0167 6 12.45 6H7.95V11.1C10.25 11.5515 12.1583 12.656 13.675 14.4136C15.1917 16.1712 15.95 18.2 15.95 20.5L16 36ZM24.8394 17.3C23.8465 17.3 23 16.9475 22.3 16.2425C21.6 15.5375 21.25 14.69 21.25 13.7C21.25 12.9418 21.5333 12.0022 22.1 10.8813C22.6667 9.76043 23.5833 8.3 24.85 6.5C26.1167 8.26667 27.0333 9.71667 27.6 10.85C28.1667 11.9833 28.45 12.9333 28.45 13.7C28.45 14.69 28.0965 15.5375 27.3894 16.2425C26.6823 16.9475 25.8323 17.3 24.8394 17.3Z" fill="#F4DCCC"/>
</g>
<defs>
<clipPath id="clip0_103_4">
<rect width="48" height="48" fill="white"/>
</clipPath>
</defs>
</svg>
